<svg xmlns="http://www.w3.org/2000/svg" viewBox="0 0 820 240" role="img" aria-labelledby="title desc">
  <title id="title">UR Sketch Logo 03 — Signature Stroke</title><desc id="desc">A lively drawn UR monogram with a single expressive gold stroke and pencil-like finish.</desc>
  <g fill="none" stroke-linecap="round" stroke-linejoin="round">
    <path d="M34 41c-1 23 .6 48-.2 71-.8 23 13 37 35 37 21 0 36-15 36-38l1-70" stroke="#20231f" stroke-width="7"/>
    <path d="M38 39c0 27-1 51 .2 73.5 1 19 12.5 31.5 31.2 31.5 18 0 31.5-13 31.5-33V40" stroke="#20231f" stroke-width="1.4" opacity=".55"/>
    <path d="M78 52c14-.8 28-.3 39 .8 14 1.3 22 9 22 21.5 0 13.5-9 21.7-23 22.5l-37 .3v50" stroke="#20231f" stroke-width="6"/>
    <path d="M81 49c15 .2 27 .6 38 1.4 17 1.4 27.5 10.3 27.5 24.2 0 15.4-10.4 25-28.5 25.5m-10 0c14 19 27 37 40 57" stroke="#bd965b" stroke-width="2.4"/>
    <path d="M68 171c30 8 65 8 88-1" stroke="#bd965b" stroke-width="2.1"/>
    <path d="m147 165 10 5-8 7" stroke="#bd965b" stroke-width="2.1"/>
    <circle cx="146" cy="40" r="2.5" fill="#bd965b" stroke="none"/>
  </g>
  <text x="216" y="96" fill="#20231f" font-family="Georgia,serif" font-size="42" letter-spacing="1.5">Udhayasankar R</text>
  <path d="M218 111h321" stroke="#bd965b" stroke-width="1.2"/>
  <text x="218" y="138" fill="#77756f" font-family="Arial,sans-serif" font-size="10" letter-spacing="3.5">DIGITAL MARKETING · LEAD GENERATION</text>
</svg>
